<svg width="32" height="32" viewBox="0 0 32 32" fill="none" xmlns="http://www.w3.org/2000/svg">
  <!-- Background with gradient -->
  <rect width="32" height="32" rx="6" fill="url(#bgGradient)"/>
  
  <!-- Central AI brain/network hub -->
  <circle cx="16" cy="16" r="6" fill="#5ac8fa" opacity="0.2"/>
  <circle cx="16" cy="16" r="4" fill="#ffffff"/>
  
  <!-- MCP connection nodes -->
  <circle cx="10" cy="10" r="1.5" fill="#5ac8fa"/>
  <circle cx="22" cy="10" r="1.5" fill="#5ac8fa"/>
  <circle cx="10" cy="22" r="1.5" fill="#5ac8fa"/>
  <circle cx="22" cy="22" r="1.5" fill="#5ac8fa"/>
  
  <!-- Connection lines (MCP protocol) -->
  <line x1="10" y1="10" x2="16" y2="16" stroke="#5ac8fa" stroke-width="1" opacity="0.5"/>
  <line x1="22" y1="10" x2="16" y2="16" stroke="#5ac8fa" stroke-width="1" opacity="0.5"/>
  <line x1="10" y1="22" x2="16" y2="16" stroke="#5ac8fa" stroke-width="1" opacity="0.5"/>
  <line x1="22" y1="22" x2="16" y2="16" stroke="#5ac8fa" stroke-width="1" opacity="0.5"/>
  
  <!-- Chat bubble (AI Assistant) -->
  <path d="M20 24 C20 23.4 20.4 23 21 23 L24 23 C24.6 23 25 23.4 25 24 L25 26 C25 26.6 24.6 27 24 27 L21 27 C20.4 27 20 26.6 20 26 Z" fill="#ffffff"/>
  <path d="M21 27 L22 28 L24 27 Z" fill="#ffffff"/>
  
  <!-- AI sparkle -->
  <circle cx="24" cy="8" r="1.5" fill="#7dd2ff"/>
  <circle cx="8" cy="8" r="1" fill="#5ac8fa" opacity="0.7"/>
  
  <defs>
    <linearGradient id="bgGradient" x1="0" y1="0" x2="32" y2="32">
      <stop offset="0%" stop-color="#142344"/>
      <stop offset="100%" stop-color="#1f3f7a"/>
    </linearGradient>
  </defs>
</svg>
